<?xml version="1.0" encoding="utf-8"?>
<!-- Generator: Adobe Illustrator 13.0.2, SVG Export Plug-In . SVG Version: 6.00 Build 14948)  -->
<!DOCTYPE svg PUBLIC "-//W3C//DTD SVG 1.1//EN" "http://www.w3.org/Graphics/SVG/1.1/DTD/svg11.dtd">
<svg version="1.1" id="Layer_1" xmlns:svg="http://www.w3.org/2000/svg"
	 xmlns="http://www.w3.org/2000/svg" xmlns:xlink="http://www.w3.org/1999/xlink" x="0px" y="0px" width="512px" height="512px"
	 viewBox="0 0 512 512" enable-background="new 0 0 512 512" xml:space="preserve">
<g id="Inside__x2B__gloss" transform="matrix(1.0759786,0,0,1.0759786,-19.822915,-21.942423)">
	<ellipse id="ellipse4" fill="#4E4A4A" cx="263.586" cy="260.19" rx="214.667" ry="209"/>
	<g id="g6">
		
			<linearGradient id="path15_1_" gradientUnits="userSpaceOnUse" x1="406.7078" y1="75.4845" x2="406.7078" y2="-273.1991" gradientTransform="matrix(1.1578 0 0 -1.1578 -241.9632 192.5659)">
			<stop  offset="0" style="stop-color:#FFFFFF"/>
			<stop  offset="1" style="stop-color:#000000"/>
		</linearGradient>
		<path id="path15" fill="url(#path15_1_)" d="M143.086,106.023c0,0-10.499,4.833-9.166,24c1.333,19.167,8.333,29.417,18.583,42.417
			c10.25,13,20.75,27,18.5,37.25c-2.25,10.25-9.375,73.708,61.625,98.375l-81.625,61.374c0,0,4.25,13.75,19.5,30.751l54.917,47.667
			c0,0-19.334-1.166-33.334-7c0,0,13.334,13.001,37.167,12.834l13.167,0.167l-63.917-67.919c0,0-7.251-10.916,6.083-20.583
			s72.667-56.5,72.667-56.5s44.75,2.583,66.752-31.917c0,0-55.75,47.249-97.75,11.583c-42-35.666-45-92.666-45-92.666
			s-0.25-10.667-7-18.417c-6.75-7.75-2.25-40.75-2.25-40.75S163.919,99.106,143.086,106.023z"/>
		
			<linearGradient id="path24_1_" gradientUnits="userSpaceOnUse" x1="549.5383" y1="3.9917" x2="549.5383" y2="-41.0034" gradientTransform="matrix(1.1578 0 0 -1.1578 -241.9632 192.5659)">
			<stop  offset="0" style="stop-color:#FFFFFF"/>
			<stop  offset="1" style="stop-color:#000000"/>
		</linearGradient>
		<path id="path24" fill="url(#path24_1_)" d="M337.003,190.94c0,0,64.5,4.5,85.5,16.25c21,11.75,15-2.25,12-10.5
			c-3.001-8.25,13.748-14.75,14.749,0.25s2.5,30,2.25,34.25c0,0-3.748-24.75-6.999-31.5c-3.25-6.75-4.002-2.25-1,9.75
			c3,12,4,17.5,2.5,23.5l-81.75-25.75C364.253,207.19,339.586,206.356,337.003,190.94z"/>
	</g>
</g>
<g id="shield_sides" transform="matrix(1.0759786,0,0,1.0759786,-19.822915,-21.942423)">
	<path id="path27" fill="#23007F" d="M196.003,443.44c0,0,8.75,11.25,35.25,8l44,14.75
		C275.253,466.19,220.253,478.44,196.003,443.44L196.003,443.44z"/>
	<path id="path29" fill="#262626" d="M139.253,93.19l-23.333,18.667C115.92,111.857,120.92,85.523,139.253,93.19"/>
	<path id="path31" fill="#5955A9" d="M227.045,312.774l1-3.625c0,0-35.792-12.959-50.292-41.209
		c-14.5-28.25-13.25-53.25-11.75-62.25c0,0-1.582-6.249-7.749-8.833c-6.167-2.584-8.001,50.333,11.249,77.333
		c19.25,26.999,55,41.75,55,41.75L227.045,312.774L227.045,312.774z"/>
	<path id="path33" fill="#5955A9" d="M213.003,325.69c0,0-49.25,38-58.25,51.75c-9,13.75-0.666,22.751-0.666,22.751
		s15.166,19,28.333,30.5c13.167,11.5,39.833,38,75.082,35.999l3.875-2.875l10.625,4c0,0-8.127,9.25-35,4.125
		c-20.7-3.945-67.75-31.083-91.083-62.083c-23.333-31,2.333-42.666,28-63c25.667-20.331,35.667-23.333,35.667-23.333L213.003,325.69
		z"/>
	<path id="path35" fill="#162E5E" d="M457.128,197.315c0,0-0.875,3.376-15.375,2.542c0,0-46.251-14.167-77-15.917
		c-30.75-1.75-31.999-8.416-37.499-17.083c-5.498-8.667-41.999-35.668-83.333-31.334c-41.333,4.334-67.917,45.667-67.917,45.667
		l-5.749-2.249l7.166-15.25c0,0,23.166-38.167,73.833-41.167c50.667-3,80.333,17.667,94.333,34.667c14,17,64.334,14.667,96.334,27
		C441.92,184.191,457.169,188.106,457.128,197.315z"/>
	<path id="path37" fill="none" stroke="#F05A28" stroke-width="0.9294" d="M141.753,89.065"/>
	<path id="path39" fill="#2A4B72" d="M141.128,96.315c0,0-9.5-8.5-17.125,1.75c-7.625,10.25-0.751,33.624,5.083,44.958
		c5.834,11.334,12.167,21.917,15.542,26.417c0,0-9.875-9-18.625-22c-8.75-13-14.5-26.25-10.75-43.75
		c3.75-17.5,19.917-17.042,25.25-15.166L141.128,96.315L141.128,96.315z"/>
	<path id="path41" fill="#7F848A" d="M463.128,237.44c0,0,7.125-0.251,5.79-10.917c-1.331-10.666-6.665-48.958-31.665-88.708
		c0,0,21.999,19.709,35.333,75.042C485.92,268.19,463.128,237.44,463.128,237.44z"/>
	<path id="path43" fill="#7E848A" d="M352.17,193.857c0,0-1.707,4.791-2.416,6.416c0,0,16.347,42.774-17.827,88.347l2.326,1.57
		C334.253,290.19,380.087,250.524,352.17,193.857z"/>
</g>
<g id="_x33__shields__x2B__kern" transform="matrix(1.0759786,0,0,1.0759786,-19.822915,-21.942423)">
	
		<radialGradient id="path59_1_" cx="432.9284" cy="-62.7349" r="224.8775" gradientTransform="matrix(1.1578 0 0 -1.1578 -241.9632 192.5659)" gradientUnits="userSpaceOnUse">
		<stop  offset="0" style="stop-color:#BAB8DB"/>
		<stop  offset="1" style="stop-color:#5955A9"/>
	</radialGradient>
	<path id="path59" fill="url(#path59_1_)" d="M445.586,147.857c0,0,78,104,3.99,222.97c-40.724,65.46-117.333,96.499-165,99.499
		c-47.667,3.001-95.875-45.375-105.75-55c-9.875-9.625-15.75-21.124-3-31.998c12.75-10.873,84.417-65.335,84.417-65.335
		s44.758,3.447,78.009-36.302s13.917-87.832,13.917-87.832s4,4.333,8.333,5.999c4.333,1.668,19.75,3.834,39.375,9.334
		c19.625,5.5,51.624,17.5,63.25,27.25c11.625,9.75,11.063-3.979,9.624-13.416C465.42,174.857,445.586,147.857,445.586,147.857
		L445.586,147.857z"/>
	
		<radialGradient id="path68_1_" cx="345.3774" cy="256.0504" r="134.8929" gradientTransform="matrix(1.076 0 0 -1.076 -72.2572 396.8643)" gradientUnits="userSpaceOnUse">
		<stop  offset="0" style="stop-color:#BAB8DB"/>
		<stop  offset="1" style="stop-color:#5955A9"/>
	</radialGradient>
	<path id="path68" fill="url(#path68_1_)" d="M170.253,179.065c0,0,2.313-4.75-1.875-12.125
		c-4.188-7.375-37.792-59.751-26.458-90.417c0,0,57.333-39.333,136.833-30.833c79.5,8.5,125,49.5,145,72.5
		c20,23,34.169,65.667,35.167,72.334c1,6.667-1.499,10.332-10.334,5.499c-8.833-4.833-19.666-8.333-39.833-13.333
		c-20.167-5-42.499-7-50.833-7.5c-8.334-0.5-13.833,0.001-19.081-6.166c-5.25-6.167-26.919-38.835-76.918-41.501
		C211.92,124.857,178.919,160.607,170.253,179.065L170.253,179.065z"/>
	
		<radialGradient id="path87_1_" cx="598.5308" cy="305.6355" r="226.9747" fx="458.1913" fy="300.7338" gradientTransform="matrix(0.3119 1.1149 0.7496 -0.2097 -246.0377 -318.0231)" gradientUnits="userSpaceOnUse">
		<stop  offset="0" style="stop-color:#BAB8DB"/>
		<stop  offset="1" style="stop-color:#5955A9"/>
	</radialGradient>
	<path id="path87" fill="url(#path87_1_)" d="M229.815,313.815c0,0-55.188,36.875-76.688,59.062
		c-9.185,9.479-18.875,13.563,0.875,38.314c19.75,24.751,57.5,55.25,91,58.5c0,0,5.667,3.416,12.584,3.583
		c0,0-80.667,6.585-146-49.415s-98.246-147.847-67.333-232c20.31-55.288,54.499-84.167,70.124-96.292
		c8.442-6.552,15.876-7.541,15.876-7.541s-17.584,5.833-11.667,31.083c5.104,21.784,16.166,38.833,21.666,44.833
		c5.5,6,20.667,23.917,21.167,34.25c0.5,10.333-8.833,41.333,13.5,75.001C197.252,306.858,229.815,313.815,229.815,313.815z"/>
	<g>
		<path id="path4864" fill="#FFFFFF" d="M343.928,224.354c0,43.01-37.345,77.876-83.414,77.876
			c-46.067,0-83.411-34.866-83.411-77.876c0-43.009,37.344-77.878,83.411-77.878C306.583,146.477,343.928,181.345,343.928,224.354z"
			/>
		
			<radialGradient id="path4839_1_" cx="257.1438" cy="219.925" r="60.4536" gradientTransform="matrix(1 0 0 1.0419 0 -6.1349)" gradientUnits="userSpaceOnUse">
			<stop  offset="0" style="stop-color:#BAB8DB"/>
			<stop  offset="1" style="stop-color:#5955A9"/>
		</radialGradient>
		<path id="path4839" fill="url(#path4839_1_)" d="M219.377,275.344c0,0,7.416,1.993,17.288,3.129
			c4.001,0.463,19.215,2.073,30.882,2.033c0,0,14.207,0.014,22.047-1.017c8.212-1.079,12.861-2.452,15.447-5.2
			c0.066-0.651,1.248-2.784-1.941-4.838c-8.154-5.256-18.697-6.698-39.172-11.191c-22.647-5.264-29.411-10.301-32.792-13.945
			c-3.207-3.659,0.599-11.246,18.847-14.971c9.24-2.074,43.646-2.459,43.646-2.459c-9.872-7.243-28.403-20.21-32.193-22.971
			c-3.324-2.416-8.677-6.128-9.254-9.443c-0.771-3.23,4.723-4.786,7.635-4.964c9.381-0.598,22.193,0.415,33.58,2.51
			c5.723,1.054,6.727,0.898,6.727,0.898c8.149,0.361,14.492-3.587,14.17-11.898c-0.067-8.43-9.185-15.192-19.283-15.486
			c-9.503-0.28-32.925,1.256-32.925,1.256c27.299,5.201,31.763,6.527,33.187,9.566c0.844,1.795-1.405,3.577-8.925,3.23
			c-8.191-0.381-24.975-2.213-24.975-2.213c-15.977-2.273-27.108-4.422-31.956,1.435c-3.171,3.828,0.45,8.492,1.876,11.242
			c6.337,10.225,17.302,17.238,24.258,22.184c2.618,1.857,10.611,5.977,10.611,5.977c-24.842-6.277-44.639-2.751-57.193,3.347
			c-14.426,7.893-11.958,21.212,10.935,33.665c13.521,7.352,20.252,10.886,42.391,13.4c12.941,1.906,14.871,2.687,14.769,3.682
			c-0.137,1.399-15.318,1.933-19.488,2.2C246.959,275.175,219.509,275.344,219.377,275.344z"/>
	</g>
</g>
<g id="Edge_gloss" transform="matrix(1.0759786,0,0,1.0759786,-19.822915,-21.942423)">
	<path id="path111" opacity="0.5" fill="#FFFFFF" enable-background="new    " d="M425.315,120.05
		c5.172,8.99,21.656,38.197,25.438,51.641c4.5,16,7.5,26.25-1,21.25c-8.5-5-62.25-17.75-80.375-19.125
		c-18.125-1.375-26.625-1.375-29-5.25c0,0-25.125-42.875-84.875-42.875c-59.75,0-84.5,50-84.5,50l0.541,0.852
		c10.308-18.994,42.561-51.567,90.376-49.019c49.998,2.666,71.665,35.334,76.917,41.501c5.25,6.167,10.749,5.666,19.081,6.166
		c8.335,0.5,30.666,2.5,50.833,7.5c20.167,5,31,8.5,39.833,13.333c8.835,4.833,11.334,1.168,10.334-5.499
		C457.947,184.031,444.486,143.414,425.315,120.05L425.315,120.05z"/>
	<path id="path113" opacity="0.5" fill="#FFFFFF" enable-background="new    " d="M456.753,235.69
		c7.833,5.667,7.833,3.333,7.833,3.333c-1.496-1.785-3.079-3.454-4.729-5.027c-13.054-8.901-39.937-19-57.992-24.238
		c-11.664-1.974-21.896-3.03-28.235-4.816c0,0-10.708-2.083-19.376-8.083c0,0,0.621,3.109,1.139,8.198
		c3.62,16.565,6.26,48.663-17.139,76.635c-33.25,39.749-78.009,36.302-78.009,36.302s-71.667,54.46-84.417,65.335
		c-12.75,10.875-6.875,22.372,3,31.998c8.728,8.508,47.398,47.274,89.175,54.101c1.221,0.12,2.367,0.209,3.418,0.265
		c0,0-42.166-9.75-66.167-33c-24-23.25-41.5-34-26.75-46c14.75-11.999,86.5-70.75,86.5-70.75s44.385,2.184,77.919-41.749
		c27.958-36.626,13.956-77.501,13.956-77.501s17.586,9.25,30.043,9.5C411.583,210.686,448.92,230.023,456.753,235.69L456.753,235.69
		z"/>
	<path id="path115" fill="#FFFFFF" d="M470.24,209.38c-11.675-40.627-15.925-41.626-22.3-57.877
		C454.191,162.128,464.503,180.065,470.24,209.38z"/>
	<path id="path117" opacity="0.8" fill="#FFFFFF" enable-background="new    " d="M138.253,161.815
		c-0.101-0.205-0.188-0.404-0.285-0.609c-5.871-7.573-14.91-23.02-19.381-42.099c-5.029-21.46,6.912-28.891,10.612-30.64
		c-16.248,5.141-15.677,16.641-9.946,39.723C125.086,151.69,138.253,161.815,138.253,161.815z"/>
	<path id="path119" fill="none" stroke="#BE1E2D" stroke-width="0.9294" d="M139.253,161.815"/>
	<path id="path121" fill="none" stroke="#BE1E2D" stroke-width="0.9294" d="M131.086,88.19"/>
	<path id="path123" opacity="0.5" fill="#FFFFFF" enable-background="new    " d="M154.003,411.19
		c-3.535-4.43-6.112-8.188-7.934-11.443c-1.214-1.271-2.341-1.898-2.941-0.807c-1.375,2.5,2.875,6.75,2.875,6.75
		c43,57,95.5,65.5,95.5,65.5c-8.859-2.4-17.355-5.885-25.355-10.012C191.644,449.694,168.184,428.961,154.003,411.19z"/>
	<path id="path125" opacity="0.6" fill="#FFFFFF" enable-background="new    " d="M267.502,147.19
		c-2.863-0.377-5.651-0.584-8.372-0.654c-8.491,0.041-16.689,1.222-24.429,3.378c-30.453,9.491-46.949,35.526-46.949,35.526
		s28.079-43.671,87.999-35.5c56.833,7.75,67,65.25,67,65.25S338.458,156.536,267.502,147.19z"/>
	<path id="path127" opacity="0.6" fill="#FFFFFF" enable-background="new    " d="M160.253,149.94
		c-6.5-13-22.833-45.916-18.75-69.75c0,0-0.581,1.019-1.302,2.951c-4.647,28.16,19.106,68.525,26.474,80.91
		C165.082,160.183,162.938,155.312,160.253,149.94z"/>
</g>
<g id="Kern_gloss" transform="matrix(1.0759786,0,0,1.0759786,-19.822915,-21.942423)" opacity="0.53">
	
		<linearGradient id="path143_1_" gradientUnits="userSpaceOnUse" x1="371.6507" y1="22.7455" x2="493.6429" y2="22.7455" gradientTransform="matrix(1.1578 0 0 -1.1578 -241.9632 192.5659)">
		<stop  offset="0" style="stop-color:#000000"/>
		<stop  offset="0.0754" style="stop-color:#000916"/>
		<stop  offset="0.233" style="stop-color:#002150"/>
		<stop  offset="0.4577" style="stop-color:#0046AB"/>
		<stop  offset="0.5273" style="stop-color:#0052C9"/>
		<stop  offset="0.9939" style="stop-color:#000000"/>
	</linearGradient>
	<path id="path143" display="none" opacity="0.52" fill="url(#path143_1_)" enable-background="new    " d="M307.007,159.683
		c-77.92-37.325-118.691,25.008-118.691,25.008c7-7.375,31.188-17.5,31.188-17.5c31.25-20.5,58.624-5.75,61.125-4.125
		c2.5,1.625,11.124,2.75,16.499,0.25c4.022-1.871,10.28-1.712,13.179-1.513C309.226,161.073,308.126,160.365,307.007,159.683
		L307.007,159.683z"/>
	<path id="path145" opacity="0.4" fill="#FFFFFF" enable-background="new    " d="M220.628,166.44c0,0,26.709-15.25,55.042-5.833
		C275.67,160.607,249.42,148.607,220.628,166.44z"/>
	
		<radialGradient id="path152_1_" cx="293.5777" cy="207.9288" r="19.5346" gradientTransform="matrix(1.076 0 0 -1.076 -72.2572 396.8643)" gradientUnits="userSpaceOnUse">
		<stop  offset="0" style="stop-color:#BAB8DB"/>
		<stop  offset="1" style="stop-color:#5955A9"/>
	</radialGradient>
	<path id="path152" opacity="0.52" fill="url(#path152_1_)" enable-background="new    " d="M266.961,163.69
		c0,0-24.375,3.25-36.75,14.75c-12.375,11.5-11.625,1.875-6.125-3.375C229.586,169.815,243.711,158.69,266.961,163.69z"/>
	
		<radialGradient id="path159_1_" cx="264.5689" cy="177.009" r="30.5391" gradientTransform="matrix(1.076 0 0 -1.076 -72.2572 396.8643)" gradientUnits="userSpaceOnUse">
		<stop  offset="0" style="stop-color:#BAB8DB"/>
		<stop  offset="1" style="stop-color:#5955A9"/>
	</radialGradient>
	<path id="path159" opacity="0.52" fill="url(#path159_1_)" enable-background="new    " d="M228.253,169.523
		c0,0-21.666,16.667-21.333,54.667c0.333,38-10.168,8.5-10.334,3C196.42,221.69,197.42,178.023,228.253,169.523L228.253,169.523z"/>
	
		<linearGradient id="path170_1_" gradientUnits="userSpaceOnUse" x1="408.0047" y1="-60.7287" x2="415.6716" y2="-84.0626" gradientTransform="matrix(1.1578 0 0 -1.1578 -241.9632 192.5659)">
		<stop  offset="0.0061" style="stop-color:#647FAD"/>
		<stop  offset="0.2251" style="stop-color:#5C7197"/>
		<stop  offset="0.6794" style="stop-color:#464D5E"/>
		<stop  offset="1" style="stop-color:#363232"/>
	</linearGradient>
	<path id="path170" opacity="0.29" fill="url(#path170_1_)" enable-background="new    " d="M185.253,204.94
		c0,0-6.167,35.417,10,44.75c0,0,21.75,50.5,80.25,26.75c0,0-8.417,9.75-10.25,16.75C265.253,293.19,168.253,310.356,185.253,204.94
		L185.253,204.94z"/>
	
		<linearGradient id="path181_1_" gradientUnits="userSpaceOnUse" x1="385.233" y1="-61.8945" x2="501.5674" y2="-96.8949" gradientTransform="matrix(1.1578 0 0 -1.1578 -241.9632 192.5659)">
		<stop  offset="0.0061" style="stop-color:#647FAD"/>
		<stop  offset="0.2251" style="stop-color:#5C7197"/>
		<stop  offset="0.6794" style="stop-color:#464D5E"/>
		<stop  offset="1" style="stop-color:#363232"/>
	</linearGradient>
	<path id="path181" opacity="0.38" fill="url(#path181_1_)" enable-background="new    " d="M275.503,276.44
		c-58.5,23.75-80.25-26.75-80.25-26.75c-1.127-0.556-2.151-1.215-3.085-1.961c13.465,48.423,64.841,39.194,77.832,36.019
		C272.716,279.671,275.503,276.44,275.503,276.44z"/>
	<path id="path183" opacity="0.4" fill="#FFFFFF" enable-background="new    " d="M195.253,249.69c0,0-13.333-9.75-10.249-41.083
		C185.004,208.607,179.087,238.69,195.253,249.69z"/>
	
		<linearGradient id="path194_1_" gradientUnits="userSpaceOnUse" x1="466.8501" y1="-22.4351" x2="482.85" y2="-65.4346" gradientTransform="matrix(1.1578 0 0 -1.1578 -241.9632 192.5659)">
		<stop  offset="0.0061" style="stop-color:#64B0AD"/>
		<stop  offset="0.2205" style="stop-color:#5C9A97"/>
		<stop  offset="0.6653" style="stop-color:#476160"/>
		<stop  offset="1" style="stop-color:#363232"/>
	</linearGradient>
	<path id="path194" opacity="0.38" fill="url(#path194_1_)" enable-background="new    " d="M286.253,289.69
		c0,0,4.999-20.25,25-35.75c20-15.5,17.75-50.75,0.498-71.75c0,0,27,15.5,29.002,58.5C340.753,240.69,324.253,281.94,286.253,289.69
		z"/>
	
		<radialGradient id="path196_1_" cx="359.1158" cy="159.6021" r="34.9407" gradientTransform="matrix(1.076 0 0 -1.076 -72.2572 396.8643)" gradientUnits="userSpaceOnUse">
		<stop  offset="0" style="stop-color:#BAB8DB"/>
		<stop  offset="1" style="stop-color:#5955A9"/>
	</radialGradient>
	<path id="path196" opacity="0.14" fill="url(#path196_1_)" enable-background="new    " d="M321.237,190.247
		c-4.545-4.865-8.323-7.344-9.251-7.916c0.113,0.199,0.235,0.398,0.347,0.6c16.709,21.078,18.689,55.688-1.077,71.01
		c-4.661,3.612-8.5,7.481-11.656,11.293c-1.292,1.752-2.094,2.707-2.094,2.707s30-4.749,33-40
		C332.076,209.45,326.702,197.469,321.237,190.247L321.237,190.247z"/>
	<path id="path198" opacity="0.4" fill="#FFFFFF" enable-background="new    " d="M312.086,182.69c0,0,30.5,40.5-0.417,71.167
		C311.67,253.857,340.253,228.023,312.086,182.69z"/>
</g>
<g id="Gloss" transform="matrix(1.0759786,0,0,1.0759786,-19.822915,-21.942423)">
	
		<linearGradient id="path208_1_" gradientUnits="userSpaceOnUse" x1="247.962" y1="-58.3018" x2="339.1007" y2="-58.3018" gradientTransform="matrix(1.1578 0 0 -1.1578 -241.9632 192.5659)">
		<stop  offset="0" style="stop-color:#FFFFFF"/>
		<stop  offset="0.7697" style="stop-color:#FFFFFF"/>
		<stop  offset="1" style="stop-color:#FFFFFF"/>
	</linearGradient>
	<path id="path208" opacity="0.5" fill="url(#path208_1_)" enable-background="new    " d="M82.253,142.19
		c8.131-12.199,22.5-27.125,29.25-34.5c0,0-68.75,70-57.916,165.502c10.204,89.951,82.667,134.667,82.667,134.667l-12.251,4.582
		C124.003,412.44-21.076,297.215,82.253,142.19z"/>
	<path id="path210" fill="none" stroke="#F05A28" stroke-width="0.9294" d="M32.587,94.857"/>
	<path id="path212" opacity="0.5" fill="#FFFFFF" enable-background="new    " d="M113.815,116.815c0,0-7.396,3.293-13.646,11.876
		c-6.25,8.583-7.418,14.916-7.334,21.416c0.084,6.5,0.584,12.5,6.417,14.5c5.833,2,7-4.917,13.5-7.25
		c6.5-2.333,9.916-0.582,10.583,1.084c0.667,1.666,3.001,6.332,12.584,5.249C135.92,163.69,113.878,145.273,113.815,116.815z"/>
	<path id="path214" opacity="0.5" fill="#FFFFFF" enable-background="new    " d="M153.086,126.774c0,0,8.417-30.084-11.458-29.334
		c0,0,2.875,14,6.25,21.125C151.253,125.69,151.544,126.483,153.086,126.774z"/>
	<path id="path216" opacity="0.5" fill="#FFFFFF" enable-background="new    " d="M184.504,79.523c0,0-3.001-5.999-15.084,0.584
		c-12.083,6.583-15.917,10.583-14,17.083c1.917,6.5,7.084,5.749,14.584-0.917C177.504,89.607,188.421,85.856,184.504,79.523z"/>
	
		<linearGradient id="path223_1_" gradientUnits="userSpaceOnUse" x1="362.885" y1="346.1564" x2="467.8854" y2="410.1567" gradientTransform="matrix(1.1578 0 0 1.1578 -146.4388 -301.2423)">
		<stop  offset="0.0061" style="stop-color:#FFFFFF"/>
		<stop  offset="1" style="stop-color:#B1DEF4"/>
	</linearGradient>
	<path id="path223" opacity="0.3" fill="url(#path223_1_)" enable-background="new    " d="M400.128,108.315
		c0,0-112.874-114.625-259.375-17.625c0,0,0.75,3.25,3.625,1.5c2.875-1.75,48.875-34.5,113.375-33.25
		c64.5,1.25,105.75,32.25,114.25,40.25C380.503,107.19,402.836,128.939,400.128,108.315z"/>
	<g id="g225">
		<path id="path227" opacity="0.5" fill="#FFFFFF" enable-background="new    " d="M56.253,346.19c0,0-0.119-0.122-0.335-0.378
			C56.137,346.093,56.253,346.19,56.253,346.19z"/>
		<path id="path229" opacity="0.5" fill="#FFFFFF" enable-background="new    " d="M111.42,100.69
			c3.543-3.985,6.275-6.784,8.067-8.541c-1.621,0.927-3.341,2.043-5.109,3.416c-7.748,6.013-20.062,16.15-32.981,31.578
			c-6.156,8.304-12.81,18.413-19.81,30.714c-19.122,33.604-27.068,63.375-28.751,89.326c-0.419,7.546-0.387,15.078,0.063,22.567
			c0.823,11.626,2.797,22.332,5.354,32.106c8.263,31.576,15.998,41.982,17.665,43.955c-1.607-2.047-8.823-13.961-17.332-70.29
			c-9.667-64,32.168-126.5,39.001-137.498C84.42,127.021,104.754,108.19,111.42,100.69z"/>
	</g>
	<g id="g231" opacity="0.4">
		
			<radialGradient id="path244_1_" cx="398.091" cy="-25.3063" r="257.5868" gradientTransform="matrix(1.1578 0 0 -1.1578 -241.9632 192.5659)" gradientUnits="userSpaceOnUse">
			<stop  offset="0" style="stop-color:#FFFFFF"/>
			<stop  offset="0.739" style="stop-color:#FFFFFF"/>
			<stop  offset="0.8606" style="stop-color:#FFFFFF"/>
			<stop  offset="0.8803" style="stop-color:#FFFFFF"/>
			<stop  offset="1" style="stop-color:#FFFFFF"/>
		</radialGradient>
		<path id="path244" fill="url(#path244_1_)" d="M257.587,473.274c-6.917-0.167-12.584-3.584-12.584-3.584
			c-23.012-2.232-48.028-17.323-67.84-34.576c-80.047-25.709-124.41-89.423-124.41-89.423c0.116,0.566,0.244,1.124,0.363,1.688
			c13.733,29.043,33.785,55.318,58.471,76.477C176.92,479.855,257.587,473.274,257.587,473.274z"/>
		
			<radialGradient id="path257_1_" cx="398.091" cy="-25.3085" r="257.587" gradientTransform="matrix(1.1578 0 0 -1.1578 -241.9632 192.5659)" gradientUnits="userSpaceOnUse">
			<stop  offset="0" style="stop-color:#FFFFFF"/>
			<stop  offset="0.739" style="stop-color:#FFFFFF"/>
			<stop  offset="0.8606" style="stop-color:#FFFFFF"/>
			<stop  offset="0.8803" style="stop-color:#FFFFFF"/>
			<stop  offset="1" style="stop-color:#FFFFFF"/>
		</radialGradient>
		<path id="path257" fill="url(#path257_1_)" d="M480.706,280.619c-14.919,36.326-76.471,144.068-202.453,162.57
			c-24.105,3.54-46.484,3.104-67.047-0.048c20.161,14.616,46.848,28.853,73.37,27.184c47.666-3,124.275-34.039,165-99.499
			C469.292,339.134,478.217,308.504,480.706,280.619z"/>
	</g>
	<path id="path259" opacity="0.6" fill="#FFFFFF" enable-background="new    " d="M174.92,273.19c-22.333-33.667-13-64.667-13.5-75
		c-0.22-4.533-3.262-10.524-7.072-16.331c-6.062,13.485-9.429,28.361-9.429,43.998c0,44.582,27.317,83.002,66.677,100.53
		c10.637-7.505,18.22-12.572,18.22-12.572S197.253,306.856,174.92,273.19L174.92,273.19z"/>
	<path id="path261" opacity="0.6" fill="#FFFFFF" enable-background="new    " d="M361.697,175.453
		c-18.999-35.777-57.593-60.264-102.11-60.264c-38.846,0-73.175,18.646-93.917,47.167c1.25,2.113,2.199,3.686,2.709,4.583
		c4.188,7.375,1.875,12.125,1.875,12.125c8.666-18.458,41.667-54.208,91.667-51.542c50.002,2.666,71.667,35.334,76.919,41.501
		c5.25,6.167,10.749,5.666,19.081,6.166C358.968,175.253,360.238,175.34,361.697,175.453z"/>
	<path id="path263" opacity="0.6" fill="#FFFFFF" enable-background="new    " d="M259.586,336.524
		c63.329,0,114.667-49.547,114.667-110.667c0-8.012-0.89-15.82-2.565-23.349c-5.408-1.126-9.321-1.937-11.185-2.652
		c-4.333-1.666-8.333-5.999-8.333-5.999s19.333,48.083-13.917,87.833c-33.25,39.749-78.009,36.301-78.009,36.301
		s-9.317,7.078-21.827,16.645C245.277,335.871,252.353,336.524,259.586,336.524L259.586,336.524z"/>
</g>
<g id="decorative_lines" transform="matrix(1.0759786,0,0,1.0759786,-19.822915,-21.942423)">
	<path id="path266" opacity="0.21" enable-background="new    " d="M479.003,280.69c0,0-3.001-26.375-22.75-28
		c0,0,7.25,92.5-95.333,152.334c0,0,19.668,23,10.834,36.666c0,0,4.499-16.333-14.336-37.333c0,0,96.083-42.917,97.833-153.667
		C455.253,250.69,476.753,251.356,479.003,280.69z"/>
	<path id="path268" opacity="0.82" fill="#D9DDE2" enable-background="new    " d="M372.753,441.69c0,0,7.667-11.165-11.832-36.666
		c0,0,94.666-47.501,95.333-152.334c0,0,17.5-1.001,22.75,28c0,0-8.251-26.165-21.417-25.499c0,0,7.667,89.833-93.833,148.916
		C363.754,404.107,384.63,431.19,372.753,441.69z"/>
	<path id="path270" opacity="0.21" enable-background="new    " d="M344.878,455.94c0,0,3.541-21.585-12.126-39.083
		c0,0-28.334,11-48.167,13c0,0,4.499,23.168,26.333,36.834c0,0-16.333-9.666-23.334-34.5c0,0,28.833-4.5,44.832-13.168
		C332.42,419.022,343.669,425.856,344.878,455.94L344.878,455.94z"/>
	<path id="path272" opacity="0.82" fill="#D9DDE2" enable-background="new    " d="M310.92,466.691c0,0-18.501-17.168-21-33.334
		c0,0,32.792-6.228,43.229-13.78c0,0,10.187,17.612,11.729,36.363c0,0,0.042-26.085-12.46-36.918c0,0-24.333,10.834-44.831,13.168
		C287.588,432.191,294.586,457.191,310.92,466.691L310.92,466.691z"/>
</g>
</svg>
